<mxfile host="app.diagrams.net" modified="2020-08-11T09:11:30.446Z" agent="5.0 (Macintosh; Intel Mac OS X 10_15_6) AppleWebKit/537.36 (KHTML, like Gecko) Chrome/84.0.4147.105 Safari/537.36" etag="fsBp_EGCZJ7bNNvFuzQ0" version="13.6.2" type="github">
  <diagram id="FwXWbmaLKMIo7kmT7VMY" name="第 1 页">
    <mxGraphModel dx="1426" dy="771" grid="1" gridSize="10" guides="1" tooltips="1" connect="1" arrows="1" fold="1" page="1" pageScale="1" pageWidth="827" pageHeight="1169" math="0" shadow="0">
      <root>
        <mxCell id="0" />
        <mxCell id="1" parent="0" />
        <mxCell id="4hBfcTHhaObr2xbEyvE5-1" value="" style="rounded=1;whiteSpace=wrap;html=1;" vertex="1" parent="1">
          <mxGeometry x="150" y="200" width="120" height="180" as="geometry" />
        </mxCell>
        <mxCell id="4hBfcTHhaObr2xbEyvE5-2" value="node0" style="text;html=1;align=center;verticalAlign=middle;resizable=0;points=[];autosize=1;" vertex="1" parent="1">
          <mxGeometry x="150" y="200" width="50" height="20" as="geometry" />
        </mxCell>
        <mxCell id="4hBfcTHhaObr2xbEyvE5-3" value="" style="rounded=1;whiteSpace=wrap;html=1;" vertex="1" parent="1">
          <mxGeometry x="320" y="200" width="120" height="180" as="geometry" />
        </mxCell>
        <mxCell id="4hBfcTHhaObr2xbEyvE5-4" value="node1" style="text;html=1;align=center;verticalAlign=middle;resizable=0;points=[];autosize=1;" vertex="1" parent="1">
          <mxGeometry x="320" y="200" width="50" height="20" as="geometry" />
        </mxCell>
        <mxCell id="4hBfcTHhaObr2xbEyvE5-5" value="pod0" style="ellipse;whiteSpace=wrap;html=1;" vertex="1" parent="1">
          <mxGeometry x="160" y="280" width="80" height="40" as="geometry" />
        </mxCell>
        <mxCell id="4hBfcTHhaObr2xbEyvE5-6" value="pod1" style="ellipse;whiteSpace=wrap;html=1;" vertex="1" parent="1">
          <mxGeometry x="180" y="320" width="80" height="40" as="geometry" />
        </mxCell>
        <mxCell id="4hBfcTHhaObr2xbEyvE5-7" value="pod2" style="ellipse;whiteSpace=wrap;html=1;" vertex="1" parent="1">
          <mxGeometry x="330" y="280" width="80" height="40" as="geometry" />
        </mxCell>
        <mxCell id="4hBfcTHhaObr2xbEyvE5-8" value="pod3" style="ellipse;whiteSpace=wrap;html=1;" vertex="1" parent="1">
          <mxGeometry x="350" y="320" width="80" height="40" as="geometry" />
        </mxCell>
        <mxCell id="4hBfcTHhaObr2xbEyvE5-9" value="xlb0" style="ellipse;whiteSpace=wrap;html=1;" vertex="1" parent="1">
          <mxGeometry x="200" y="210" width="60" height="30" as="geometry" />
        </mxCell>
        <mxCell id="4hBfcTHhaObr2xbEyvE5-10" value="xlb1" style="ellipse;whiteSpace=wrap;html=1;" vertex="1" parent="1">
          <mxGeometry x="370" y="210" width="60" height="30" as="geometry" />
        </mxCell>
        <mxCell id="4hBfcTHhaObr2xbEyvE5-11" value="" style="endArrow=classic;html=1;entryX=0.5;entryY=0;entryDx=0;entryDy=0;" edge="1" parent="1" target="4hBfcTHhaObr2xbEyvE5-1">
          <mxGeometry width="50" height="50" relative="1" as="geometry">
            <mxPoint x="170" y="110" as="sourcePoint" />
            <mxPoint x="440" y="370" as="targetPoint" />
          </mxGeometry>
        </mxCell>
        <mxCell id="4hBfcTHhaObr2xbEyvE5-12" value="" style="endArrow=classic;html=1;entryX=0.5;entryY=0;entryDx=0;entryDy=0;dashed=1;exitX=0.4;exitY=1;exitDx=0;exitDy=0;exitPerimeter=0;" edge="1" parent="1" source="4hBfcTHhaObr2xbEyvE5-9" target="4hBfcTHhaObr2xbEyvE5-5">
          <mxGeometry width="50" height="50" relative="1" as="geometry">
            <mxPoint x="210" y="260" as="sourcePoint" />
            <mxPoint x="250" y="350" as="targetPoint" />
          </mxGeometry>
        </mxCell>
        <mxCell id="4hBfcTHhaObr2xbEyvE5-17" value="gue" style="edgeLabel;html=1;align=center;verticalAlign=middle;resizable=0;points=[];" vertex="1" connectable="0" parent="4hBfcTHhaObr2xbEyvE5-12">
          <mxGeometry x="-0.0956" relative="1" as="geometry">
            <mxPoint x="6.8" y="-8.01" as="offset" />
          </mxGeometry>
        </mxCell>
        <mxCell id="4hBfcTHhaObr2xbEyvE5-13" value="" style="endArrow=classic;html=1;entryX=0.5;entryY=0;entryDx=0;entryDy=0;" edge="1" parent="1" target="4hBfcTHhaObr2xbEyvE5-3">
          <mxGeometry width="50" height="50" relative="1" as="geometry">
            <mxPoint x="225" y="200" as="sourcePoint" />
            <mxPoint x="220" y="210" as="targetPoint" />
            <Array as="points">
              <mxPoint x="240" y="160" />
              <mxPoint x="350" y="160" />
            </Array>
          </mxGeometry>
        </mxCell>
        <mxCell id="4hBfcTHhaObr2xbEyvE5-19" value="gue" style="edgeLabel;html=1;align=center;verticalAlign=middle;resizable=0;points=[];" vertex="1" connectable="0" parent="4hBfcTHhaObr2xbEyvE5-13">
          <mxGeometry x="-0.0556" relative="1" as="geometry">
            <mxPoint as="offset" />
          </mxGeometry>
        </mxCell>
        <mxCell id="4hBfcTHhaObr2xbEyvE5-15" value="" style="endArrow=classic;html=1;entryX=1;entryY=0;entryDx=0;entryDy=0;dashed=1;exitX=0.717;exitY=1;exitDx=0;exitDy=0;exitPerimeter=0;dashPattern=1 4;" edge="1" parent="1" source="4hBfcTHhaObr2xbEyvE5-9" target="4hBfcTHhaObr2xbEyvE5-6">
          <mxGeometry width="50" height="50" relative="1" as="geometry">
            <mxPoint x="234" y="250" as="sourcePoint" />
            <mxPoint x="210" y="290" as="targetPoint" />
          </mxGeometry>
        </mxCell>
        <mxCell id="4hBfcTHhaObr2xbEyvE5-18" value="inline-redirect" style="edgeLabel;html=1;align=center;verticalAlign=middle;resizable=0;points=[];" vertex="1" connectable="0" parent="4hBfcTHhaObr2xbEyvE5-15">
          <mxGeometry x="-0.0893" y="2" relative="1" as="geometry">
            <mxPoint x="12.6" y="-8.8" as="offset" />
          </mxGeometry>
        </mxCell>
        <mxCell id="4hBfcTHhaObr2xbEyvE5-20" value="" style="endArrow=classic;html=1;entryX=1;entryY=0;entryDx=0;entryDy=0;dashed=1;dashPattern=1 4;" edge="1" parent="1" target="4hBfcTHhaObr2xbEyvE5-8">
          <mxGeometry width="50" height="50" relative="1" as="geometry">
            <mxPoint x="410" y="236" as="sourcePoint" />
            <mxPoint x="402.63427124746215" y="325.85786437626894" as="targetPoint" />
          </mxGeometry>
        </mxCell>
        <mxCell id="4hBfcTHhaObr2xbEyvE5-21" value="decap-gue&lt;br&gt;inline-redirect" style="edgeLabel;html=1;align=center;verticalAlign=middle;resizable=0;points=[];" vertex="1" connectable="0" parent="4hBfcTHhaObr2xbEyvE5-20">
          <mxGeometry x="-0.0893" y="2" relative="1" as="geometry">
            <mxPoint x="8.12" y="-6.65" as="offset" />
          </mxGeometry>
        </mxCell>
        <mxCell id="4hBfcTHhaObr2xbEyvE5-24" value="" style="endArrow=classic;html=1;entryX=0.238;entryY=0.1;entryDx=0;entryDy=0;dashed=1;exitX=0.35;exitY=1;exitDx=0;exitDy=0;exitPerimeter=0;entryPerimeter=0;" edge="1" parent="1" source="4hBfcTHhaObr2xbEyvE5-10" target="4hBfcTHhaObr2xbEyvE5-7">
          <mxGeometry width="50" height="50" relative="1" as="geometry">
            <mxPoint x="234" y="250" as="sourcePoint" />
            <mxPoint x="210" y="290" as="targetPoint" />
          </mxGeometry>
        </mxCell>
        <mxCell id="4hBfcTHhaObr2xbEyvE5-25" value="gue" style="edgeLabel;html=1;align=center;verticalAlign=middle;resizable=0;points=[];" vertex="1" connectable="0" parent="4hBfcTHhaObr2xbEyvE5-24">
          <mxGeometry x="-0.0956" relative="1" as="geometry">
            <mxPoint x="-2.37" y="0.46000000000000085" as="offset" />
          </mxGeometry>
        </mxCell>
      </root>
    </mxGraphModel>
  </diagram>
</mxfile>
